<?xml version="1.0" encoding="UTF-8"?>
<svg xmlns="http://www.w3.org/2000/svg" viewBox="0 0 64 64">
  <!-- Pink heart shape -->
  <path d="M32 56.8C30.8 56.8 29.6 56.4 28.8 55.6C14.4 42.8 5.6 34.8 5.6 24.8C5.6 16.8 11.6 10.8 19.2 10.8C24 10.8 28.4 13.6 32 18C35.6 13.6 40 10.8 44.8 10.8C52.4 10.8 58.4 16.8 58.4 24.8C58.4 34.8 49.6 42.8 35.2 55.6C34.4 56.4 33.2 56.8 32 56.8Z" 
        fill="#FF6B9B" />
  
  <!-- Subtle highlight for a 3D effect -->
  <path d="M20 14C15 14 10.8 18.4 10.8 24.8C10.8 32 17.6 38.4 32 51.2" 
        fill="#FF9FF3" fill-opacity="0.4" />
</svg>